HIERARCHY
ROOT hip
{
	OFFSET 0.000000 0.000000 0.000000 
	CHANNELS 6 Xposition Yposition Zposition Xrotation Zrotation Yrotation
	JOINT abdomen
	{
		OFFSET 0.000000 3.402643 0.000000 
		CHANNELS 3 Xrotation Zrotation Yrotation
		JOINT chest
		{
			OFFSET 0.000000 8.438565 -0.680529 
			CHANNELS 3 Xrotation Zrotation Yrotation
			JOINT neck
			{
				OFFSET 0.000000 10.207942 -0.272212 
				CHANNELS 3 Xrotation Zrotation Yrotation
				JOINT head
				{
					OFFSET 0.000000 3.130431 0.000000 
					CHANNELS 3 Xrotation Zrotation Yrotation
					End Site
					{
						OFFSET 0.000000 3.130435 0.000000 
					}
				}
			}
			JOINT lCollar
			{
				OFFSET 3.470700 6.669187 -0.816635 
				CHANNELS 3 Yrotation Zrotation Xrotation
				JOINT lShldr
				{
					OFFSET 3.198488 0.000000 0.000000 
					CHANNELS 3 Zrotation Yrotation Xrotation
					JOINT lForeArm
					{
						OFFSET 10.139888 0.000000 0.000000 
						CHANNELS 3 Yrotation Zrotation Xrotation
						JOINT lHand
						{
							OFFSET 8.370511 0.000000 0.000000 
							CHANNELS 3 Zrotation Yrotation Xrotation
							End Site
							{
								OFFSET 4.083176 0.000000 0.000000 
							}
						}
					}
				}
			}
			JOINT rCollar
			{
				OFFSET -3.470700 6.669187 -0.816635 
				CHANNELS 3 Yrotation Zrotation Xrotation
				JOINT rShldr
				{
					OFFSET -3.198488 0.000000 0.000000 
					CHANNELS 3 Zrotation Yrotation Xrotation
					JOINT rForeArm
					{
						OFFSET -10.139888 0.000000 0.000000 
						CHANNELS 3 Yrotation Zrotation Xrotation
						JOINT rHand
						{
							OFFSET -8.370511 0.000000 0.000000 
							CHANNELS 3 Zrotation Yrotation Xrotation
							End Site
							{
								OFFSET -4.083176 0.000000 0.000000 
							}
						}
					}
				}
			}
		}
	}
	JOINT lThigh
	{
		OFFSET 5.308129 -1.633274 1.361059 
		CHANNELS 3 Xrotation Zrotation Yrotation
		JOINT lShin
		{
			OFFSET -2.041588 -20.007561 0.000000 
			CHANNELS 3 Xrotation Zrotation Yrotation
			JOINT lFoot
			{
				OFFSET 0.000000 -19.190928 -1.224953 
				CHANNELS 3 Xrotation Yrotation Zrotation
				End Site
				{
					OFFSET 0.000000 -2.449906 4.627600 
				}
			}
		}
	}
	JOINT rThigh
	{
		OFFSET -5.308129 -1.633274 1.361059 
		CHANNELS 3 Xrotation Zrotation Yrotation
		JOINT rShin
		{
			OFFSET 2.041588 -20.007561 0.000000 
			CHANNELS 3 Xrotation Zrotation Yrotation
			JOINT rFoot
			{
				OFFSET 0.000000 -19.190928 -1.224953 
				CHANNELS 3 Xrotation Yrotation Zrotation
				End Site
				{
					OFFSET 0.000000 -2.449906 4.627600 
				}
			}
		}
	}
}
MOTION
Frames: 13
Frame Time: 0.016667
-1.331972 51.529190 -0.147056 -3.196015 1.568408 -4.015106 8.255935 -1.815896 -1.358287 9.148311 -3.132997 -1.926823 13.485057 18.820292 -14.863866 -15.282284 21.305809 -15.262083 -9.890357 -15.545801 6.200724 -2.889758 -26.918827 -4.148411 -6.947971 8.954818 3.644439 19.165895 -1.729680 -31.480827 7.479732 6.380269 7.342297 -5.909120 33.754642 -24.561611 -3.095037 -13.070333 5.071379 2.749200 -7.274329 -103.093956 -4.372316 11.085960 2.351026 44.240494 -0.908131 -1.247166 12.884510 5.223641 -2.161770 -5.446233 -14.200737 -1.200178 24.547398 -0.546648 0.807991 8.773447 -0.175033 3.764604 
-1.726478 51.624954 -0.447225 -4.235148 0.370170 -4.043011 8.255935 -1.815896 -1.358287 9.484862 -2.096734 -3.000325 18.118155 22.292559 -13.493772 -10.698297 23.930746 -12.944147 -10.965060 -14.956514 6.817611 -0.194180 -32.182583 5.086941 -6.054523 8.889487 3.589802 17.145267 -2.422127 -33.169479 6.202375 7.115607 7.714053 -7.784834 38.915718 -19.604549 -4.873634 -12.955301 4.824360 2.454379 -6.668314 -100.981972 -4.773916 10.493339 4.807868 50.945930 -0.938991 -1.082305 17.939999 4.561626 -2.280245 -4.392521 -12.531678 -3.502324 24.208046 -0.361089 0.861734 9.691264 -0.583531 3.658674 
-2.104757 51.520226 -0.638705 -4.552544 -0.701548 -3.838201 8.255935 -1.815896 -1.358287 9.488134 -1.227610 -3.907235 21.236362 24.867990 -12.988567 -7.161989 25.400681 -11.689050 -11.977779 -14.262085 6.915863 2.340826 -36.712143 10.608096 -6.420909 8.913705 3.608181 16.912766 -3.585689 -32.635677 5.173840 7.812037 7.624414 -10.531731 42.393890 -12.273546 -5.065013 -12.949347 4.803968 -0.217191 -5.881453 -101.434860 -5.104147 9.923159 6.735325 56.024670 -0.803521 -0.975241 23.168585 2.976365 -2.513874 -3.534070 -11.194694 -5.254959 23.502443 -0.536968 0.793182 9.246819 0.186061 3.681559 
-2.488873 51.295692 -0.773022 -4.725523 -1.861485 -3.635016 8.255935 -1.815896 -1.358287 9.140488 -0.360150 -4.628999 23.366690 26.939175 -12.518496 -4.372482 26.304928 -10.859823 -12.890237 -13.457028 6.723665 4.435432 -41.251297 16.374905 -7.125971 8.962072 3.652721 17.783180 -5.284166 -31.285023 4.369320 8.520516 7.205375 -12.996789 46.074268 -4.821387 -4.873634 -12.955301 4.824360 -2.857270 -5.290234 -102.036095 -5.096759 9.528140 8.830733 61.329998 -0.824207 -1.113756 28.323620 1.478299 -2.793624 -2.635948 -9.729939 -6.271845 22.966099 -0.546941 0.753339 8.258952 1.370059 3.489365 
-2.868657 50.967377 -0.847677 -4.791253 -2.884431 -3.755070 8.255935 -1.815896 -1.358287 8.603893 0.515306 -5.371227 24.395241 28.748703 -12.841437 -2.737665 26.893782 -10.742432 -13.819190 -12.447007 6.429832 5.822067 -45.995426 18.281252 -8.190674 9.030131 3.733315 19.185841 -7.136617 -29.782265 3.588338 9.394246 6.589869 -16.253189 48.102337 3.479660 -4.519279 -12.978967 4.869202 -8.573833 -3.899242 -105.702400 -5.077653 9.460980 11.128862 65.506287 -0.669015 -1.294457 32.727913 -0.196441 -2.956508 -2.128198 -8.383678 -6.599508 22.604931 -0.546817 0.740931 6.186031 1.829956 3.673369 
-3.230068 50.569859 -0.874958 -4.717240 -4.003716 -4.043118 8.255935 -1.815896 -1.358287 8.085552 1.554631 -5.754068 24.208374 30.015102 -13.383896 -1.935976 26.998112 -11.016949 -14.453590 -11.502827 5.923357 6.957769 -50.750805 20.326344 -9.603672 9.116593 3.838763 20.953667 -8.975192 -28.102314 3.177802 10.155656 5.837029 -19.274323 50.497173 12.205753 -5.239965 -12.931048 4.772028 -14.225597 -3.025201 -109.430832 -4.393381 9.525939 14.179135 69.054893 -0.660161 -1.326205 36.593575 -2.509749 -2.975282 -1.580873 -6.906354 -6.327162 22.087439 -0.536997 0.734616 3.742001 2.310452 3.565346 
-3.558945 50.134029 -0.859932 -4.548293 -4.982170 -4.852993 8.255935 -1.815896 -1.358287 7.381339 2.603731 -5.816506 23.154024 30.880457 -14.205306 -2.738531 26.885056 -12.148549 -14.704072 -10.370349 5.688748 7.242257 -55.641838 19.226807 -11.029316 9.202616 4.125817 23.073172 -10.703343 -26.927629 3.107203 11.156137 5.260580 -22.454512 51.603615 22.741947 -8.118579 -12.895087 4.334085 -21.211678 -2.008849 -118.131142 -3.358920 9.466859 17.382032 72.018074 -0.338620 -1.640293 39.584431 -4.211146 -3.075780 -1.580981 -5.366215 -5.017126 22.263517 -0.537071 0.730929 0.495169 2.320062 3.672787 
-3.846243 49.686863 -0.821717 -4.115192 -5.912780 -6.195595 8.255935 -1.815896 -1.358287 6.861802 3.653737 -5.704775 20.928480 31.366196 -15.314227 -4.372633 26.300299 -13.496625 -14.769670 -9.219608 5.460974 7.625633 -60.336826 17.784986 -12.812820 9.139437 4.216477 25.015757 -12.459451 -25.767687 3.189677 12.177239 4.652655 -25.353798 53.202614 33.372837 -13.145793 -12.661471 3.633755 -28.380404 -2.239249 -126.872322 -2.353725 9.403949 20.191259 74.363113 -0.658734 -1.133086 41.641521 -6.089597 -2.995370 -1.755423 -4.143010 -3.318746 22.625702 -0.289071 0.622759 -2.634624 2.073516 3.664381 
-4.076991 49.265953 -0.776614 -3.225615 -6.762197 -7.887594 8.255935 -1.815896 -1.358287 6.344137 4.880531 -5.419802 18.217291 31.713600 -16.291552 -6.960677 25.572269 -14.936563 -14.677982 -7.875943 5.228896 7.897935 -64.382309 14.598244 -14.953466 9.267645 4.575661 26.390959 -13.896144 -24.743969 3.468212 13.404707 4.032097 -27.698505 53.861591 45.527931 -22.293514 -12.255813 2.452340 -33.706829 -3.595544 -139.636322 -1.299018 9.139960 23.738934 75.440422 -0.659027 -0.840439 43.359238 -8.347957 -2.670122 -2.771857 -2.761920 -1.708111 23.505508 -0.289065 0.616191 -5.839859 2.000314 3.763381 
-4.254975 48.870693 -0.738303 -2.170573 -7.696551 -9.944345 8.255935 -1.815896 -1.358287 5.653603 6.283155 -5.167769 14.499354 32.015434 -17.456200 -9.915245 24.615391 -16.127823 -14.605411 -6.308988 4.885796 8.853112 -68.562454 10.222798 -17.790651 9.419677 4.799417 27.559238 -14.982015 -23.629827 3.781749 14.776800 3.189555 -29.865618 55.080727 57.945599 -31.378202 -11.475780 1.526758 -38.714699 -5.975658 -152.306656 -0.616733 8.471411 26.893307 75.970673 -0.668913 -1.048591 44.378906 -10.202995 -2.845700 -4.103530 -1.549963 -0.345489 24.721167 -0.292784 0.514286 -8.951341 2.482420 3.645566 
-4.375370 48.517937 -0.725905 -0.385561 -8.521877 -12.049750 8.255935 -1.815896 -1.358287 4.964540 8.037056 -4.920642 10.596433 32.508530 -18.209066 -13.197055 23.426367 -16.832424 -14.544319 -4.420456 4.648452 10.467650 -71.253510 5.189799 -21.348831 9.426512 5.194618 28.289328 -15.645125 -22.108622 4.092057 16.499710 2.311572 -32.463264 55.875999 66.806671 -42.445835 -10.562040 0.191296 -40.354031 -8.642349 -164.796066 -0.401545 7.878005 29.694036 75.752136 -0.698417 -1.411970 45.358395 -11.958155 -3.193084 -6.370303 -0.370819 0.225329 26.131252 -0.371025 0.910117 -11.411792 3.121106 3.486310 
-4.449163 48.193279 -0.739370 2.149843 -9.198027 -14.429077 8.255935 -1.815896 -1.358287 4.092231 9.808247 -4.914186 6.196338 32.691605 -19.075558 -16.618105 22.163139 -17.212839 -14.700346 -2.495466 4.242330 12.985460 -73.091385 -0.970799 -25.440495 9.460258 5.606477 28.781372 -16.025660 -20.207441 4.262593 18.189880 1.268878 -34.869286 56.923660 75.810989 -53.385544 -9.257892 -0.507448 138.717270 -168.485031 2.693867 -0.803249 7.024907 32.081604 74.887497 -0.658981 -0.976158 45.956150 -13.867933 -2.877945 -9.110009 1.191210 0.195682 27.863436 -0.791976 1.042505 -13.698486 4.180227 3.554796 
-4.482975 47.889488 -0.788940 4.946237 -9.827769 -16.559263 8.255935 -1.815896 -1.358287 3.044256 11.925702 -5.149979 1.461797 33.258366 -20.168133 -19.976879 20.839188 -16.947285 -15.078420 -0.212967 3.800228 16.570417 -74.050385 -7.954290 -30.261799 9.506913 6.280494 29.005514 -15.934420 -18.060600 4.298485 20.208748 0.049066 -39.724792 58.449501 76.635025 -61.854057 -8.253509 -1.028175 139.514755 -166.975098 -6.251497 -1.983744 6.273032 33.816647 73.651360 -0.649187 -1.068355 46.522915 -14.910564 -3.096770 -12.469841 2.597643 0.349670 29.453804 -0.631000 0.997761 -15.242979 5.110616 3.719786 
